{"title":"spongebob squarepants christmas-xvid by winker@1337x+kidzcorner","uid":5969715,"size":1056520329,"categoryP":"video","categoryS":"tv_shows","magnet":"?xt=urn:btih:59fff5e091e567fd9dbf5602b06f731d0e6cdae1&amp;dn=spongebob+squarepants+christmas-xvid+by+winker%401337x%2Bkidzcorner&amp;tr=udp%3A%2F%2Ftracker.openbittorrent.com%3A80&amp;tr=udp%3A%2F%2Fopen.demonii.com%3A1337&amp;tr=udp%3A%2F%2Ftracker.coppersurfer.tk%3A6969&amp;tr=udp%3A%2F%2Fexodus.desync.com%3A6969","seeders":8,"leechers":1,"uploader":"alanwatson","files":-1,"time":1290241602,"description":"Christmas comes but once a year - and this time it's coming to Bikini Bottom! Living at the bottom of the ocean, naturally SpongeBob hasn't heard of Christmas. When sandy tells him about it in 'Christmas Who?' he is determined to spread the holiday joy and manages to get all the residents to write letters to Santa - except scroogy Squidward who is sceptical about the whole business... Just one of nine episodes in this hilarious collection brimming with Yuletide cheer.\n\nFormat : AVI\nFormat/Info : Audio Video Interleave\nFile size : 1 008 MiB\nDuration : 2h 0mn\nOverall bit rate : 1 174 Kbps\n\nVideo\nID : 0\nFormat : MPEG-4 Visual\nFormat profile : Simple@L3\nFormat settings, BVOP : No\nFormat settings, QPel : No\nFormat settings, GMC : No warppoints\n\nCodec ID : XVID\nCodec ID/Hint : XviD\nDuration : 2h 0mn\nBit rate : 1 001 Kbps\nWidth : 698 pixels\nHeight : 570 pixels\nDisplay aspect ratio : 4:3\nFrame rate : 25.000 fps\nColor space : YUV\nChroma subsampling : 4:2:0\nBit depth : 8 bits\nScan type : Progressive\nBits/(Pixel*Frame) : 0.101\nStream size : 859 MiB (85%)\nWriting library : XviD 1.1.2 (UTC 2006-11-01)\n\nAudio\nID : 1\nFormat : MPEG Audio\nFormat version : Version 1\nFormat profile : Layer 3\nMode : Joint stereo\nMode extension : MS Stereo\nCodec ID : 55\nCodec ID/Hint : MP3\nDuration : 2h 0mn\nBit rate mode : Constant\nBit rate : 160 Kbps\nChannel(s) : 2 channels\nSampling rate : 48.0 KHz\nStream size : 137 MiB (14%)\nAlignment : Split accross interleaves\nInterleave, duration : 24 ms (0.60 video frame)\nInterleave, preload duration : 308 ms\nWriting library : LAME3.98\n","torrent":{"xt":"urn:btih:59fff5e091e567fd9dbf5602b06f731d0e6cdae1","amp;dn":"spongebob+squarepants+christmas-xvid+by+winker%401337x%2Bkidzcorner","amp;tr":["udp%3A%2F%2Ftracker.openbittorrent.com%3A80","udp%3A%2F%2Fopen.demonii.com%3A1337","udp%3A%2F%2Ftracker.coppersurfer.tk%3A6969","udp%3A%2F%2Fexodus.desync.com%3A6969"],"infoHash":"59fff5e091e567fd9dbf5602b06f731d0e6cdae1","infoHashBuffer":{"type":"Buffer","data":[89,255,245,224,145,229,103,253,157,191,86,2,176,111,115,29,14,108,218,225]},"announce":[],"urlList":[]}}